<svg xmlns="http://www.w3.org/2000/svg" xmlns:xlink="http://www.w3.org/1999/xlink" version="1.1" x="0px" y="0px" viewBox="0 0 100 100" enable-background="new 0 0 100 100" xml:space="preserve"><g><path d="M50.2,38.1c-6.5,0-11.8,5.3-11.8,11.8c0,0.3,0,0.6,0,0.9c0,0.1,0,0.1,0,0.2C38.9,57,44,61.8,50.2,61.8S61.5,57,62,51   c0-0.1,0-0.1,0-0.2c0-0.3,0-0.6,0-0.9C62,43.4,56.7,38.1,50.2,38.1z M58.3,50.4C58.3,50.5,58.3,50.5,58.3,50.4c0,0.2,0,0.3,0,0.5   c0,0,0,0,0,0.1c0,0.1,0,0.3-0.1,0.4c0,0,0,0,0,0c0,0.1-0.1,0.3-0.1,0.4c-0.8,3.6-4.1,6.3-7.9,6.3s-7.1-2.7-7.9-6.3   c0-0.1-0.1-0.3-0.1-0.4c0,0,0,0,0,0c0-0.1,0-0.3-0.1-0.4c0,0,0,0,0-0.1c0-0.1,0-0.2,0-0.4c0,0,0-0.1,0-0.1c0-0.2,0-0.3,0-0.5   c0-4.5,3.6-8.1,8.1-8.1s8.1,3.6,8.1,8.1C58.3,50.1,58.3,50.3,58.3,50.4z"/><path d="M93.7,48.1C92.7,25,73.6,6.4,50.2,6.4S7.7,25,6.7,48.1h0V50v1.9h0c1,23.1,20.1,41.7,43.5,41.7c0,0,0,0,0,0   c11.6,0,22.6-4.5,30.8-12.8c7.8-7.8,12.3-18,12.7-28.9h0V50L93.7,48.1L93.7,48.1z M66.6,16.4c-5.1-2.5-10.7-3.8-16.4-3.8   c-5.8,0-11.3,1.3-16.4,3.8l-0.5,0.3v32.4H22.7V19.9C30.2,13,40,9.2,50.2,9.2S70.1,13,77.7,19.9v29.2H67.1V16.6L66.6,16.4z    M78.3,78.1c-7.5,7.5-17.5,11.7-28.2,11.7c-21.3,0-38.8-16.9-39.8-38h26.2c-0.1-0.6-0.1-1.2-0.1-1.9c0-7.6,6.1-13.7,13.7-13.7   S63.9,42.4,63.9,50c0,0.6,0,1.3-0.1,1.9H90C89.5,61.8,85.4,71,78.3,78.1z"/></g><text x="0" y="115" fill="#000000" font-size="5px" font-weight="bold" font-family="'Helvetica Neue', Helvetica, Arial-Unicode, Arial, Sans-serif">Created by Alex WaZa</text><text x="0" y="120" fill="#000000" font-size="5px" font-weight="bold" font-family="'Helvetica Neue', Helvetica, Arial-Unicode, Arial, Sans-serif">from the Noun Project</text></svg>