<svg xmlns="http://www.w3.org/2000/svg" xmlns:xlink="http://www.w3.org/1999/xlink" version="1.1" x="0px" y="0px" viewBox="0 0 100 100" enable-background="new 0 0 100 100" xml:space="preserve"><g><path d="M50.2,37.8c-6.5,0-11.8,5.3-11.8,11.8c0,0.3,0,0.6,0,0.9c0,0.1,0,0.1,0,0.2c0.5,6.1,5.6,10.8,11.8,10.8S61.5,56.7,62,50.6   c0-0.1,0-0.1,0-0.2c0-0.3,0-0.6,0-0.9C62,43.1,56.7,37.8,50.2,37.8z M58.3,50.1C58.3,50.1,58.3,50.2,58.3,50.1c0,0.2,0,0.3,0,0.5   c0,0,0,0,0,0.1c0,0.1,0,0.3-0.1,0.4c0,0,0,0,0,0c0,0.1-0.1,0.3-0.1,0.4c-0.8,3.6-4.1,6.3-7.9,6.3s-7.1-2.7-7.9-6.3   c0-0.1-0.1-0.3-0.1-0.4c0,0,0,0,0,0c0-0.1,0-0.3-0.1-0.4c0,0,0,0,0-0.1c0-0.1,0-0.2,0-0.4c0,0,0-0.1,0-0.1c0-0.2,0-0.3,0-0.5   c0-4.5,3.6-8.1,8.1-8.1s8.1,3.6,8.1,8.1C58.3,49.8,58.3,49.9,58.3,50.1z"/><path d="M93.7,47.8c-0.1-1.3-0.2-2.6-0.3-3.8c0.2-10.1-3.6-19.6-10.7-26.8c-6.9-6.9-16.2-10.8-26-10.8c-0.3,0-0.5,0-0.8,0   c-1.9-0.2-3.8-0.4-5.7-0.4c-1.9,0-3.8,0.1-5.7,0.4c-0.3,0-0.5,0-0.8,0c-9.8,0-19,3.8-26,10.8C10.6,24.4,6.8,33.9,7,44   c-0.2,1.3-0.3,2.5-0.3,3.8h0v1.9v1.9h0c1,23.1,20.1,41.7,43.5,41.7c0,0,0,0,0,0c11.6,0,22.6-4.5,30.8-12.8   c7.8-7.8,12.3-18,12.7-28.9h0v-1.9L93.7,47.8L93.7,47.8z M89.6,42.2c-8.5-0.2-16.4-3.6-22.4-9.6c-6-6-9.4-13.9-9.7-22.4   c8.5,0.2,16.4,3.6,22.4,9.6C86,25.9,89.4,33.8,89.6,42.2z M20.4,19.8c6-6,13.9-9.4,22.4-9.6c-0.2,8.5-3.6,16.3-9.7,22.4   c-6,6-13.9,9.4-22.4,9.6C11,33.8,14.4,25.9,20.4,19.8z M78.3,77.8c-7.5,7.5-17.5,11.7-28.2,11.7c-21.3,0-38.8-16.9-39.8-38h26.2   c-0.1-0.6-0.1-1.2-0.1-1.9c0-7.6,6.1-13.7,13.7-13.7s13.7,6.1,13.7,13.7c0,0.6,0,1.3-0.1,1.9H90C89.5,61.4,85.4,70.7,78.3,77.8z"/></g><text x="0" y="115" fill="#000000" font-size="5px" font-weight="bold" font-family="'Helvetica Neue', Helvetica, Arial-Unicode, Arial, Sans-serif">Created by Alex WaZa</text><text x="0" y="120" fill="#000000" font-size="5px" font-weight="bold" font-family="'Helvetica Neue', Helvetica, Arial-Unicode, Arial, Sans-serif">from the Noun Project</text></svg>