<svg xmlns="http://www.w3.org/2000/svg" xmlns:xlink="http://www.w3.org/1999/xlink" version="1.1" x="0px" y="0px" viewBox="0 0 100 100" enable-background="new 0 0 100 100" xml:space="preserve"><g><path d="M50.2,38.5c-6.5,0-11.8,5.3-11.8,11.8c0,0.3,0,0.6,0,0.9c0,0.1,0,0.1,0,0.2c0.5,6.1,5.6,10.8,11.8,10.8S61.5,57.4,62,51.3   c0-0.1,0-0.1,0-0.2c0-0.3,0-0.6,0-0.9C62,43.8,56.7,38.5,50.2,38.5z M58.3,50.8C58.3,50.8,58.3,50.8,58.3,50.8c0,0.2,0,0.3,0,0.5   c0,0,0,0,0,0.1c0,0.1,0,0.3-0.1,0.4c0,0,0,0,0,0c0,0.1-0.1,0.3-0.1,0.4c-0.8,3.6-4.1,6.3-7.9,6.3s-7.1-2.7-7.9-6.3   c0-0.1-0.1-0.3-0.1-0.4c0,0,0,0,0,0c0-0.1,0-0.3-0.1-0.4c0,0,0,0,0-0.1c0-0.1,0-0.2,0-0.4c0,0,0-0.1,0-0.1c0-0.2,0-0.3,0-0.5   c0-4.5,3.6-8.1,8.1-8.1s8.1,3.6,8.1,8.1C58.3,50.5,58.3,50.6,58.3,50.8z"/><path d="M93.7,48.4c-0.3-7.5-2.6-14.5-6.2-20.6l4.3-3.6l-0.9-1.4c-1.8-2.6-3.8-5-6-7.2c-2.2-2.2-4.6-4.2-7.2-6l-1.4-0.9L72.7,13   c-6.6-4-14.3-6.3-22.5-6.3C42,6.8,34.3,9.1,27.7,13l-3.6-4.3l-1.4,0.9c-2.6,1.7-5,3.8-7.2,6c-2.2,2.2-4.2,4.6-6,7.2l-0.9,1.4   l4.3,3.6C9.3,33.9,7,40.9,6.7,48.4h0v1.9v1.9h0c1,23.1,20.1,41.7,43.5,41.7c0,0,0,0,0,0c11.6,0,22.6-4.5,30.8-12.8   c7.8-7.8,12.3-18,12.7-28.9h0v-1.9L93.7,48.4L93.7,48.4z M76.9,13.7c1.9,1.4,3.7,2.9,5.3,4.5c1.6,1.6,3.2,3.4,4.5,5.3L67.1,39.9   l-6.5-6.5L76.9,13.7z M18.2,18.3c1.6-1.6,3.4-3.2,5.3-4.5l16.3,19.7l-6.5,6.5L13.6,23.6C15,21.7,16.5,19.9,18.2,18.3z M78.3,78.5   C70.8,86,60.8,90.1,50.2,90.1c-21.3,0-38.8-16.9-39.8-38h26.2c-0.1-0.6-0.1-1.2-0.1-1.9c0-7.6,6.1-13.7,13.7-13.7   s13.7,6.1,13.7,13.7c0,0.6,0,1.3-0.1,1.9H90C89.5,62.1,85.4,71.4,78.3,78.5z"/></g><text x="0" y="115" fill="#000000" font-size="5px" font-weight="bold" font-family="'Helvetica Neue', Helvetica, Arial-Unicode, Arial, Sans-serif">Created by Alex WaZa</text><text x="0" y="120" fill="#000000" font-size="5px" font-weight="bold" font-family="'Helvetica Neue', Helvetica, Arial-Unicode, Arial, Sans-serif">from the Noun Project</text></svg>